<mxfile host="app.diagrams.net" modified="2023-06-01T16:49:14.098Z" agent="Mozilla/5.0 (X11; Linux x86_64) AppleWebKit/537.36 (KHTML, like Gecko) Chrome/112.0.0.0 Safari/537.36" version="21.3.6" etag="dcnXQtdFyCW5to-h4v7I" type="github">
  <diagram name="PÃ¡gina-1" id="Y1JwUpQMCcgn__WQWk-I">
    <mxGraphModel>
      <root>
        <mxCell id="0" />
        <mxCell id="1" parent="0" />
      </root>
    </mxGraphModel>
  </diagram>
</mxfile>
